Coordinates
version=1
nRows=22
nColumns=24
inDegrees=yes

Units are S.I. units (second, meters, Newtons, ...)
Angles are in degrees.

endheader
time	pelvis_tilt	pelvis_list	pelvis_rotation	pelvis_tx	pelvis_ty	pelvis_tz	hip_flexion_r	hip_adduction_r	hip_rotation_r	knee_angle_r	ankle_angle_r	subtalar_angle_r	mtp_angle_r	hip_flexion_l	hip_adduction_l	hip_rotation_l	knee_angle_l	ankle_angle_l	subtalar_angle_l	mtp_angle_l	lumbar_extension	lumbar_bending	lumbar_rotation
      4.57000000	     -4.11282413	      0.32664870	     -0.13148355	     -1.86667172	     -0.02711830	     -0.39619991	     27.28511977	      0.18240546	     -9.52802820	     -9.85144376	     -4.77117133	      0.02828446	     18.93405749	    -15.70604871	      0.34022255	     -9.70991156	    -14.85238487	      2.40154477	      7.93701182	     23.48023443	     -1.65097214	      0.41940235	     -7.42566118
      4.57500000	     -4.16255277	      0.07135276	     -0.13290605	     -1.85858605	     -0.02776403	     -0.39520695	     27.39268470	      0.61496924	     -8.58411965	    -10.82381586	     -5.32207655	     -1.47632208	     16.38493018	    -15.62884496	     -0.20517744	    -10.12792723	    -15.67868936	      1.22027475	      8.50614099	     25.81595917	     -1.43426384	      0.74246845	     -7.33372538
      4.58000000	     -4.28212765	     -0.09132302	     -0.14125677	     -1.85065211	     -0.02834536	     -0.39429879	     27.55480813	      0.94550870	     -7.63694419	    -11.62560649	     -6.45185543	     -3.12990223	     15.76559078	    -15.39643053	     -0.61823736	    -10.28240792	    -16.66746422	      0.18362061	      8.87194580	     26.14353098	     -1.16972229	      0.98001234	     -7.27689810
      4.58500000	     -4.37980246	     -0.41741335	     -0.38485349	     -1.84253509	     -0.02882936	     -0.39303163	     27.65248777	      1.57431051	     -6.50087761	    -12.34478174	     -7.54551363	     -4.74005486	     14.57838232	    -15.20505265	     -1.19607008	    -10.97014380	    -17.63587548	     -1.11901496	      9.34784568	     27.47077205	     -0.90907989	      1.39205201	     -6.89211593
      4.59000000	     -4.44199337	     -0.82467067	     -0.39873715	     -1.83450758	     -0.02899922	     -0.39185308	     27.66524740	      2.18741640	     -5.69831405	    -13.02881054	     -8.29719314	     -6.12865717	     12.30875119	    -14.96232310	     -1.95943034	    -11.47107118	    -18.61082285	     -2.89857726	      9.75084676	     30.53912198	     -0.70157719	      1.85409497	     -6.82732989
      4.59500000	     -4.59901729	     -1.12046214	     -0.49081671	     -1.82664453	     -0.02914374	     -0.39063314	     27.78574351	      2.72029657	     -4.75418283	    -13.62393884	     -9.45167156	     -7.77885248	     11.61641322	    -14.51310900	     -2.57314923	    -11.86180469	    -19.83256508	     -4.36278368	     10.12895238	     30.88583903	     -0.42384350	      2.20736337	     -6.66434640
      4.60000000	     -4.61469511	     -1.61859918	     -0.70580300	     -1.81866648	     -0.02903740	     -0.38918489	     27.72221787	      3.53576052	     -3.74293171	    -14.25623157	    -10.03572847	     -9.14988179	      8.99854110	    -14.25697434	     -3.42811234	    -12.63422774	    -20.89377822	     -6.47144298	     10.40602002	     33.95475653	     -0.29537021	      2.76925898	     -6.36798758
      4.60500000	     -4.68710199	     -2.03923505	     -0.88958971	     -1.81079567	     -0.02885998	     -0.38775199	     27.73171953	      4.26392443	     -2.74613857	    -14.91621878	    -10.52150498	    -10.58241800	      6.50614988	    -13.84472887	     -4.21208852	    -13.21915290	    -22.11466627	     -8.49957770	     10.63347163	     35.61586923	     -0.12495450	      3.24414268	     -6.11924241
      4.61000000	     -4.83115859	     -2.42532853	     -1.16609568	     -1.80287891	     -0.02873530	     -0.38623307	     27.82292401	      4.99566510	     -1.71912666	    -15.59268623	    -11.04723560	    -12.04687362	      4.85097115	    -13.31429652	     -4.96031557	    -13.87202079	    -23.43936259	    -10.49593287	     10.88615317	     36.44647941	      0.11620241	      3.69077083	     -5.77168246
      4.61500000	     -4.81232219	     -2.81760941	     -1.24162959	     -1.79515866	     -0.02829237	     -0.38488069	     27.74552982	      5.66423658	     -0.88146576	    -16.39252135	    -10.65978852	    -13.20721820	      0.45470674	    -12.89181882	     -5.74382530	    -14.15844487	    -24.66636749	    -13.03292914	     10.74796016	     38.84036190	      0.16630440	      4.11288626	     -5.65474772
      4.62000000	     -4.88013005	     -3.17549813	     -1.38367466	     -1.78738714	     -0.02797283	     -0.38346517	     27.76759385	      6.33324572	     -0.01736433	    -17.23409837	    -10.11493027	    -14.31853073	     -3.77594056	    -12.32152491	     -6.49129910	    -14.45200714	    -26.03933333	    -15.36321679	     10.70153687	     39.92035080	      0.30861741	      4.50583486	     -5.46620043
      4.62500000	     -4.95839836	     -3.47640148	     -1.49344136	     -1.77967258	     -0.02769336	     -0.38213248	     27.80464005	      6.92609329	      0.75768117	    -18.10174901	     -9.41048028	    -15.33307015	     -7.79825328	    -11.68177693	     -7.17204201	    -14.58704451	    -27.44865793	    -17.76246475	     10.50848211	     40.94323576	      0.45838553	      4.83796971	     -5.31360892
      4.63000000	     -5.04687818	     -3.73359250	     -1.55935146	     -1.77202005	     -0.02745702	     -0.38088863	     27.84840231	      7.45321037	      1.45798508	    -18.98715736	     -8.46396895	    -16.18508981	    -11.92732015	    -10.96055932	     -7.80222600	    -14.57229319	    -28.93006605	    -20.12502466	     10.21438930	     41.57853583	      0.61461451	      5.12048046	     -5.19986059
      4.63500000	     -5.28476882	     -3.94992559	     -1.60727158	     -1.76436644	     -0.02745509	     -0.37975248	     28.03215658	      7.90739003	      2.03287868	    -19.79436275	     -8.05779277	    -17.14352323	    -13.71002919	     -9.99557129	     -8.38411471	    -14.43774307	    -30.54817385	    -22.28083256	      9.86791569	     41.59730003	      0.93866042	      5.36993919	     -5.11500535
      4.64000000	     -5.20951135	     -4.16458267	     -1.53752729	     -1.75691040	     -0.02713304	     -0.37880765	     27.86508666	      8.31224247	      2.52076479	    -20.66691594	     -6.39838764	    -17.44763800	    -18.67068178	     -9.33270215	     -8.93496497	    -14.15294551	    -32.07993281	    -24.63166401	      9.24014104	     41.99646736	      0.90834771	      5.59931906	     -5.12039393
      4.64500000	     -5.21175399	     -4.38861257	     -1.44616169	     -1.74945403	     -0.02699410	     -0.37807369	     27.72085085	      8.65905635	      2.77489445	    -21.32713593	     -6.04286307	    -18.09755081	    -18.77396972	     -8.50435952	     -9.48594739	    -13.85721144	    -33.76969592	    -26.67189750	      8.51034953	     41.55914402	      0.96661686	      5.85698239	     -5.14523139
      4.65000000	     -5.54882778	     -4.46773014	     -1.37917840	     -1.74216428	     -0.02723425	     -0.37729415	     27.98213777	      8.85687347	      3.01649656	    -22.09231207	     -5.14871734	    -18.27309487	    -19.80586542	     -7.20556242	     -9.86810362	    -13.44385601	    -35.59363345	    -28.53541587	      7.69882706	     40.74521190	      1.37235843	      5.96566827	     -5.17806468
      4.65500000	     -5.63872052	     -4.64022544	     -1.24817542	     -1.73496438	     -0.02719467	     -0.37667751	     27.89738992	      9.09322155	      3.08487786	    -22.70441285	     -4.16638408	    -18.30676780	    -20.92016879	     -6.14363758	    -10.32752724	    -13.04176976	    -37.41540308	    -30.27571668	      6.70339642	     39.50610256	      1.50516678	      6.15540590	     -5.23178056
      4.66000000	     -5.63423747	     -4.88181224	     -1.11570142	     -1.72785918	     -0.02705283	     -0.37606060	     27.61972304	      9.39245797	      3.14580214	    -23.11847221	     -3.52413995	    -18.50471490	    -21.12854963	     -5.17096427	    -10.84814632	    -12.68465339	    -39.20194109	    -31.96379476	      5.49861261	     38.62940566	      1.52527679	      6.41375003	     -5.20727609
      4.66500000	     -5.78619456	     -5.15375297	     -1.02967686	     -1.72081225	     -0.02707489	     -0.37549243	     27.50180403	      9.68477911	      2.98829631	    -23.50990244	     -2.59388554	    -18.23478189	    -21.54408896	     -3.95115041	    -11.41024295	    -12.42344186	    -41.18210556	    -33.01375996	      4.39481650	     36.10584334	      1.70580119	      6.71908364	     -5.15318841
      4.67000000	     -5.91061561	     -5.40748586	     -0.90914798	     -1.71385634	     -0.02698670	     -0.37500838	     27.30207065	      9.90066301	      2.66767018	    -23.78368866	     -1.71382623	    -17.77502650	    -21.24660284	     -2.75575441	    -11.92223772	    -12.10123431	    -43.02820236	    -34.15930993	      3.05241673	     34.55059369	      1.85687951	      6.99849151	     -5.15757072
      4.67500000	     -6.02476766	     -5.68725092	     -0.80564274	     -1.70705906	     -0.02685798	     -0.37454918	     27.03754169	     10.13062546	      2.32165698	    -23.92616480	     -1.00590269	    -17.31789507	    -20.43896867	     -1.52341598	    -12.45312674	    -11.83512413	    -44.96858215	    -34.64039118	      1.71274117	     31.78829793	      1.97143786	      7.30518746	     -5.12098643
